<?xml version="1.0" encoding="UTF-8" standalone="no"?>
<svg
  id="layer_2"
  viewBox="0 0 802.4 265.48"
  version="1.1"
  xmlns="http://www.w3.org/2000/svg">
  <defs
    id="defs4">
    <style
      id="style2">.cls-1{fill:#03093f;}
    </style>
  </defs>
  <g
    id="layer_1-2">
    <g
      id="g22">
      <polygon
        class="cls-1"
        points="396.59 130 432.05 180.38 414.32 180.38 383.44 137.72 363.92 137.72 363.92 180.38 348.91 180.38 348.91 85.1 363.92 85.1 363.92 123.35 383.44 123.35 414.08 85.1 432.05 85.1 396.59 130"
        id="polygon6"/>
      <polygon
        class="cls-1"
        points="548.25 85.1 548.25 100.02 514.68 100.02 514.68 180.38 499.76 180.38 499.76 100.02 466.18 100.02 466.18 85.1 548.25 85.1"
        id="polygon8"/>
      <path
        class="cls-1"
        d="M802.4,85.1l-39.03,131.02h-14.92l10.66-35.74h-5.53c-9.62,0-18.09-6.35-20.53-15.66l-20.85-79.62h14.92l19.66,75.03c.84,3.22,3.75,5.46,7.08,5.46h9.65l23.97-80.5h14.92Z"
        id="path10"/>
      <path
        class="cls-1"
        d="M630.39,84.86c-12.86,0-24.51,5.1-33.07,13.38v-13.14h-14.93V216.14h14.93v-49.3c8.56,8.26,20.22,13.35,33.07,13.35,26.28,0,47.68-21.37,47.68-47.65s-21.4-47.68-47.68-47.68m0,81.03c-16.87,0-30.86-12.57-33.07-28.83-.21-1.49-.31-3-.31-4.53s.09-3.04,.31-4.53c2.22-16.28,16.21-28.85,33.07-28.85,18.4,0,33.38,14.96,33.38,33.38s-14.98,33.36-33.38,33.36"
        id="path12"/>
      <path
        class="cls-1"
        d="M294.34,132.44l-7.08-16.54-17.83-41.64c-1.2-2.85-2.76-5.4-4.58-7.62-5.1-6.25-12.31-9.98-20.22-10.19-7.93,.21-15.15,3.94-20.24,10.19-1.82,2.22-3.37,4.77-4.58,7.62l-17.81,41.64-7.08,16.54-20.43,47.77h16.54s9.93-23.47,20.24-47.77h66.81c7.78,18.28,15.71,36.87,20.31,47.77h16.37l-20.43-47.77Zm-76.06-16.54c8.44-19.86,15.57-36.68,15.64-36.82,2.2-4.34,5.97-7.03,10.4-7.34,.1-.02,.5-.02,.59,0,4.43,.31,8.21,3,10.4,7.34,.02,.05,7.08,16.56,15.71,36.82h-52.75Z"
        id="path14"/>
      <g
        id="g20">
        <path
          class="cls-1"
          d="M102.69,161.81l-31.08-31.08,29.19-29.32c2.33-2.33,2.33-6.1,0-8.42L9.43,1.62C5.88-1.92-.17,.74,.05,5.75v13.27c.05,1.38,.63,2.68,1.6,3.65L73.81,95.03c1.2,1.2,1.2,3.15,0,4.35l-16.7,16.85L9.39,68.51C5.84,64.97-.21,67.62,0,72.63l.03,13.57c.06,1.38,.63,2.68,1.61,3.65l74.05,73.99c1.2,1.2,1.2,3.15,0,4.35L1.64,242.28c-1.01,1-1.58,2.36-1.61,3.78v13.8c-.1,4.95,5.88,7.5,9.39,4l93.27-93.63c2.33-2.33,2.33-6.1,0-8.42Z"
          id="path16"/>
        <path
          class="cls-1"
          d="M13.68,189.18l18.34-18.34c2.75-2.75,2.75-7.21,0-9.96l-17.88-17.88c-4.41-4.41-12.43-1.83-12.51,4.4l.03,36.71c-.08,6.32,7.55,9.53,12.02,5.07Z"
          id="path18"/>
      </g>
    </g>
  </g>
</svg>
