<?xml version="1.0" encoding="UTF-8" standalone="no"?>
<svg
  id="layer_2"
  viewBox="0 0 23.999999 23.999999"
  version="1.1"
  width="24"
  height="24"
  xmlns="http://www.w3.org/2000/svg"
  xmlns:svg="http://www.w3.org/2000/svg">
  <defs
    id="defs4">
    <style
      id="style2">.cls-1{fill:#03093f;}
    </style>
  </defs>
  <g
    id="layer_1-2"
    transform="matrix(0.02991007,0,0,0.02991007,1.5929041e-4,8.029723)">
    <g
      id="g22">
      <polygon
        class="cls-1"
        points="414.32,180.38 383.44,137.72 363.92,137.72 363.92,180.38 348.91,180.38 348.91,85.1 363.92,85.1 363.92,123.35 383.44,123.35 414.08,85.1 432.05,85.1 396.59,130 432.05,180.38 "
        id="polygon6"/>
      <polygon
        class="cls-1"
        points="466.18,85.1 548.25,85.1 548.25,100.02 514.68,100.02 514.68,180.38 499.76,180.38 499.76,100.02 466.18,100.02 "
        id="polygon8"/>
      <path
        class="cls-1"
        d="m 802.4,85.1 -39.03,131.02 h -14.92 l 10.66,-35.74 h -5.53 c -9.62,0 -18.09,-6.35 -20.53,-15.66 L 712.2,85.1 h 14.92 l 19.66,75.03 c 0.84,3.22 3.75,5.46 7.08,5.46 h 9.65 l 23.97,-80.5 h 14.92 z"
        id="path10"/>
      <path
        class="cls-1"
        d="m 630.39,84.86 c -12.86,0 -24.51,5.1 -33.07,13.38 V 85.1 h -14.93 v 131.04 h 14.93 v -49.3 c 8.56,8.26 20.22,13.35 33.07,13.35 26.28,0 47.68,-21.37 47.68,-47.65 0,-26.28 -21.4,-47.68 -47.68,-47.68 m 0,81.03 c -16.87,0 -30.86,-12.57 -33.07,-28.83 -0.21,-1.49 -0.31,-3 -0.31,-4.53 0,-1.53 0.09,-3.04 0.31,-4.53 2.22,-16.28 16.21,-28.85 33.07,-28.85 18.4,0 33.38,14.96 33.38,33.38 0,18.42 -14.98,33.36 -33.38,33.36"
        id="path12"/>
      <path
        class="cls-1"
        d="M 294.34,132.44 287.26,115.9 269.43,74.26 c -1.2,-2.85 -2.76,-5.4 -4.58,-7.62 -5.1,-6.25 -12.31,-9.98 -20.22,-10.19 -7.93,0.21 -15.15,3.94 -20.24,10.19 -1.82,2.22 -3.37,4.77 -4.58,7.62 L 202,115.9 l -7.08,16.54 -20.43,47.77 h 16.54 c 0,0 9.93,-23.47 20.24,-47.77 h 66.81 c 7.78,18.28 15.71,36.87 20.31,47.77 h 16.37 L 294.33,132.44 Z M 218.28,115.9 c 8.44,-19.86 15.57,-36.68 15.64,-36.82 2.2,-4.34 5.97,-7.03 10.4,-7.34 0.1,-0.02 0.5,-0.02 0.59,0 4.43,0.31 8.21,3 10.4,7.34 0.02,0.05 7.08,16.56 15.71,36.82 h -52.75 z"
        id="path14"/>
      <g
        id="g20">
        <path
          class="cls-1"
          d="M 102.69,161.81 71.61,130.73 100.8,101.41 c 2.33,-2.33 2.33,-6.1 0,-8.42 L 9.43,1.62 C 5.88,-1.92 -0.17,0.74 0.05,5.75 v 13.27 c 0.05,1.38 0.63,2.68 1.6,3.65 l 72.16,72.36 c 1.2,1.2 1.2,3.15 0,4.35 L 57.11,116.23 9.39,68.51 C 5.84,64.97 -0.21,67.62 0,72.63 L 0.03,86.2 c 0.06,1.38 0.63,2.68 1.61,3.65 l 74.05,73.99 c 1.2,1.2 1.2,3.15 0,4.35 L 1.64,242.28 c -1.01,1 -1.58,2.36 -1.61,3.78 v 13.8 c -0.1,4.95 5.88,7.5 9.39,4 l 93.27,-93.63 c 2.33,-2.33 2.33,-6.1 0,-8.42 z"
          id="path16"/>
        <path
          class="cls-1"
          d="m 13.68,189.18 18.34,-18.34 c 2.75,-2.75 2.75,-7.21 0,-9.96 L 14.14,143 C 9.73,138.59 1.71,141.17 1.63,147.4 l 0.03,36.71 c -0.08,6.32 7.55,9.53 12.02,5.07 z"
          id="path18"/>
      </g>
    </g>
  </g>
</svg>
