<?xml version="1.0" encoding="UTF-8" standalone="no"?>
<svg
  id="layer_2"
  viewBox="0 0 24 23.999999"
  version="1.1"
  width="24"
  height="24"
  xmlns="http://www.w3.org/2000/svg"
  xmlns:svg="http://www.w3.org/2000/svg">
  <defs
    id="defs18">
    <style
      id="style16">.cls-1{fill:#03093f;}
    </style>
  </defs>
  <g
    id="layer_1-2"
    transform="matrix(0.05851466,0,0,0.05851466,9.6944507,4.2327361)">
    <g
      id="g24">
      <path
        class="cls-1"
        d="M 102.74891,161.81 71.668911,130.73 100.85891,101.41 c 2.33,-2.33 2.33,-6.1 0,-8.42 L 9.4889107,1.62 c -3.55,-3.54 -9.60000002,-0.88 -9.38000002,4.13 v 13.27 c 0.05,1.38 0.63,2.68 1.60000002,3.65 L 73.868911,95.03 c 1.2,1.2 1.2,3.15 0,4.35 l -16.7,16.85 L 9.4489107,68.51 c -3.55,-3.54 -9.60000002,-0.89 -9.39000002,4.12 l 0.03,13.57 c 0.06,1.38 0.63,2.68 1.61000002,3.65 l 74.0500003,73.99 c 1.2,1.2 1.2,3.15 0,4.35 L 1.6989107,242.28 c -1.01000002,1 -1.58000002,2.36 -1.61000002,3.78 v 13.8 c -0.1,4.95 5.88000002,7.5 9.39000002,4 L 102.74891,170.23 c 2.33,-2.33 2.33,-6.1 0,-8.42 z"
        id="path20"/>
      <path
        class="cls-1"
        d="m 13.68,189.18 18.34,-18.34 c 2.75,-2.75 2.75,-7.21 0,-9.96 L 14.14,143 C 9.73,138.59 1.71,141.17 1.63,147.4 l 0.03,36.71 c -0.08,6.32 7.55,9.53 12.02,5.07 z"
        id="path22"/>
    </g>
  </g>
</svg>
